<svg width="36" height="32" viewBox="0 0 36 32" fill="none" xmlns="http://www.w3.org/2000/svg">
<path d="M33.6602 22.418H10.3984L11.5664 20.0391L30.9727 20.0039C31.6289 20.0039 32.1914 19.5352 32.3086 18.8867L34.9961 3.84375C35.0664 3.44922 34.9609 3.04297 34.7031 2.73438C34.5757 2.5825 34.4168 2.46016 34.2373 2.37585C34.0579 2.29153 33.8623 2.24726 33.6641 2.24609L8.97656 2.16406L8.76562 1.17188C8.63281 0.539062 8.0625 0.078125 7.41406 0.078125H1.37891C1.0132 0.078125 0.662467 0.223402 0.403872 0.481997C0.145277 0.740592 0 1.09132 0 1.45703C0 1.82274 0.145277 2.17347 0.403872 2.43207C0.662467 2.69066 1.0132 2.83594 1.37891 2.83594H6.29688L7.21875 7.21875L9.48828 18.207L6.56641 22.9766C6.41467 23.1814 6.32328 23.4245 6.30257 23.6786C6.28186 23.9326 6.33266 24.1874 6.44922 24.4141C6.68359 24.8789 7.15625 25.1719 7.67969 25.1719H10.1328C9.60984 25.8665 9.32736 26.7126 9.32812 27.582C9.32812 29.793 11.125 31.5898 13.3359 31.5898C15.5469 31.5898 17.3438 29.793 17.3438 27.582C17.3438 26.7109 17.0547 25.8633 16.5391 25.1719H22.832C22.3091 25.8665 22.0266 26.7126 22.0273 27.582C22.0273 29.793 23.8242 31.5898 26.0352 31.5898C28.2461 31.5898 30.043 29.793 30.043 27.582C30.043 26.7109 29.7539 25.8633 29.2383 25.1719H33.6641C34.4219 25.1719 35.043 24.5547 35.043 23.793C35.0407 23.4276 34.894 23.078 34.635 22.8204C34.3759 22.5629 34.0255 22.4182 33.6602 22.418ZM9.55078 4.88281L32.043 4.95703L29.8398 17.293L12.1719 17.3242L9.55078 4.88281ZM13.3359 28.8164C12.6562 28.8164 12.1016 28.2617 12.1016 27.582C12.1016 26.9023 12.6562 26.3477 13.3359 26.3477C14.0156 26.3477 14.5703 26.9023 14.5703 27.582C14.5703 27.9094 14.4403 28.2234 14.2088 28.4549C13.9773 28.6864 13.6633 28.8164 13.3359 28.8164ZM26.0352 28.8164C25.3555 28.8164 24.8008 28.2617 24.8008 27.582C24.8008 26.9023 25.3555 26.3477 26.0352 26.3477C26.7148 26.3477 27.2695 26.9023 27.2695 27.582C27.2695 27.9094 27.1395 28.2234 26.908 28.4549C26.6765 28.6864 26.3625 28.8164 26.0352 28.8164Z" fill="black"/>
</svg>
