<?xml version="1.0" encoding="UTF-8"?>
<svg xmlns="http://www.w3.org/2000/svg" xmlns:xlink="http://www.w3.org/1999/xlink" width="20pt" height="20pt" viewBox="0 0 20 20" version="1.1">
<g id="surface1">
<path style=" stroke:none;fill-rule:evenodd;fill:rgb(0%,0%,0%);fill-opacity:1;" d="M 11.5625 4.339844 L 11.5625 15.664062 L 9.15625 15.664062 L 9.15625 4.339844 L 5.25 7.625 L 3.550781 6.191406 L 10.359375 0.457031 L 17.171875 6.191406 L 15.46875 7.625 Z M 1.933594 17.6875 L 18.789062 17.6875 C 19.109375 17.6875 19.414062 17.796875 19.640625 17.984375 C 19.867188 18.175781 19.992188 18.433594 19.992188 18.703125 C 19.992188 18.972656 19.867188 19.230469 19.640625 19.417969 C 19.414062 19.609375 19.109375 19.714844 18.789062 19.714844 L 1.933594 19.714844 C 1.613281 19.714844 1.308594 19.609375 1.082031 19.417969 C 0.855469 19.230469 0.726562 18.972656 0.726562 18.703125 C 0.726562 18.433594 0.855469 18.175781 1.082031 17.984375 C 1.308594 17.796875 1.613281 17.6875 1.933594 17.6875 Z M 1.933594 17.6875 "/>
</g>
</svg>
